<?xml version="1.0" encoding="UTF-8"?>
<!DOCTYPE svg PUBLIC "-//W3C//DTD SVG 1.1//EN" "http://www.w3.org/Graphics/SVG/1.1/DTD/svg11.dtd">
<!-- Creator: CorelDRAW 2021 (64 Bit) -->
<svg xmlns="http://www.w3.org/2000/svg" xml:space="preserve" width="283.066mm" height="195.844mm" version="1.1" style="shape-rendering:geometricPrecision; text-rendering:geometricPrecision; image-rendering:optimizeQuality; fill-rule:evenodd; clip-rule:evenodd"
viewBox="0 0 28305.54 19583.62"
 xmlns:xlink="http://www.w3.org/1999/xlink"
 xmlns:xodm="http://www.corel.com/coreldraw/odm/2003">
 <defs>
  <style type="text/css">
   <![CDATA[
    .str1 {stroke:#C89734;stroke-width:25.39;stroke-linecap:round;stroke-linejoin:round;stroke-miterlimit:22.9256}
    .str0 {stroke:#F2C86D;stroke-width:25.39;stroke-linecap:round;stroke-linejoin:round;stroke-miterlimit:22.9256}
    .fil0 {fill:none}
    .fil2 {fill:#C89734}
    .fil1 {fill:#F2C86D}
   ]]>
  </style>
 </defs>
 <g id="Camada_x0020_1">
  <metadata id="CorelCorpID_0Corel-Layer"/>
  <g id="_2003057923648">
   <g>
    <path class="fil0 str0" d="M3730.61 1197.36c532.18,187.09 1239.79,-348.23 998.49,-794.63 -211.49,-391.18 -695.15,-64.09 -516.61,228.8 137.83,226.12 403.34,31.95 270.07,-162.48"/>
    <path class="fil0 str0" d="M1105.31 3827.24c178.76,535.02 -367.54,1234.22 -810.1,985.94 -387.84,-217.56 -53.25,-696.06 236.83,-512.97 223.95,141.36 25.64,403.81 -166.66,267.51"/>
    <path class="fil0 str0" d="M638.05 732.37c873.77,762.73 1762.49,984.45 2328.49,592.26"/>
    <path class="fil0 str0" d="M638.05 732.35c761.96,874.48 982.88,1763.39 590.2,2329.05"/>
    <path class="fil0 str1" d="M626.88 718.83c475.61,573.59 850.51,1359.91 462.78,1932.23 -402.65,594.34 -1261.06,66.96 -864.43,-548.71 310.47,-481.9 990.63,-50.55 785.99,204.3 -143.08,178.22 -666.59,-287.64 -278.79,-827.67"/>
    <path class="fil0 str1" d="M638.05 732.37c577.95,466.89 1357.33,823.64 1923.33,431.49 590.09,-408.82 53.76,-1261.7 -557.73,-858.63 -478.63,315.48 -40.2,991.1 212.52,783.79 176.69,-144.93 -294.62,-663.53 -830.54,-270.11"/>
    <path class="fil0 str0" d="M90.66 190.66c286.58,282.25 886.1,539.79 1189.74,388.01 303.66,-151.8 101.02,-450.68 -173.12,-289.21"/>
    <path class="fil0 str0" d="M90.66 190.66c280.14,288.63 533.29,890.02 379.29,1192.54 -154.02,302.54 -451.39,97.72 -287.94,-175.23"/>
    <path class="fil1" d="M236.86 1327.2c49.95,0 90.67,-40.74 90.67,-90.69 0,-49.95 -40.72,-90.69 -90.67,-90.69 -49.95,0 -90.69,40.74 -90.69,90.69 0,49.95 40.74,90.69 90.69,90.69z"/>
    <path class="fil1" d="M1133.86 435.73c49.95,0 90.67,-40.72 90.67,-90.67 0,-49.95 -40.72,-90.68 -90.67,-90.68 -49.95,0 -90.69,40.73 -90.69,90.68 0,49.95 40.74,90.67 90.69,90.67z"/>
    <line class="fil0 str1" x1="90.66" y1="190.66" x2="626.88" y2= "718.8" />
    <path class="fil0 str1" d="M638.05 732.37c1709.88,1784.34 719.31,3199.39 202.83,3190.93 -516.48,-8.48 -219.36,-648.31 150.68,-271.3 340.33,346.68 264.22,1406.68 -643.42,1778"/>
    <path class="fil0 str1" d="M638.05 732.37c1778.88,1715.58 3195.8,717.13 3188.98,200.65 -6.79,-516.52 -647.6,-221.45 -271.77,149.8 335.37,331.35 1343.78,272.68 1745.11,-559.54"/>
    <path class="fil1" d="M394.31 4603.24c49.95,0 90.67,-40.71 90.67,-90.66 0,-49.96 -40.72,-90.69 -90.67,-90.69 -49.95,0 -90.68,40.73 -90.68,90.69 0,49.95 40.73,90.66 90.68,90.66z"/>
    <path class="fil2" d="M321.93 5464.46c49.95,0 90.66,-40.72 90.66,-90.67 0,-49.95 -40.71,-90.69 -90.66,-90.69 -49.95,0 -90.69,40.74 -90.69,90.69 0,49.95 40.74,90.67 90.69,90.67z"/>
    <path class="fil1" d="M1176.97 3118.26c49.95,0 90.66,-40.74 90.66,-90.69 0,-49.95 -40.71,-90.68 -90.66,-90.68 -49.96,0 -90.69,40.73 -90.69,90.68 0,49.95 40.73,90.69 90.69,90.69z"/>
    <path class="fil2" d="M783.85 1601.81c49.95,0 90.68,-40.74 90.68,-90.69 0,-49.95 -40.73,-90.68 -90.68,-90.68 -49.95,0 -90.69,40.73 -90.69,90.68 0,49.95 40.74,90.69 90.69,90.69z"/>
    <path class="fil2" d="M1416.18 962.74c49.95,0 90.69,-40.72 90.69,-90.67 0,-49.95 -40.74,-90.69 -90.69,-90.69 -49.95,0 -90.68,40.74 -90.68,90.69 0,49.95 40.73,90.67 90.68,90.67z"/>
    <path class="fil1" d="M2929.9 1365.22c49.95,0 90.68,-40.74 90.68,-90.69 0,-49.95 -40.73,-90.68 -90.68,-90.68 -49.95,0 -90.69,40.73 -90.69,90.68 0,49.95 40.74,90.69 90.69,90.69z"/>
    <path class="fil2" d="M5243.83 587.09c49.95,0 90.67,-40.71 90.67,-90.67 0,-49.95 -40.72,-90.68 -90.67,-90.68 -49.95,0 -90.68,40.73 -90.68,90.68 0,49.96 40.73,90.67 90.68,90.67z"/>
    <path class="fil1" d="M4336.34 495.71c-0.8,50.08 39.16,91.29 89.24,92.07 50.08,0.8 91.31,-39.17 92.09,-89.25 0.77,-50.08 -39.17,-91.29 -89.25,-92.08 -50.1,-0.78 -91.31,39.16 -92.08,89.26z"/>
    <path class="fil2" d="M90.68 281.32c49.95,0 90.66,-40.71 90.66,-90.66 0,-49.96 -40.71,-90.69 -90.66,-90.69 -49.95,0 -90.69,40.73 -90.69,90.69 0,49.95 40.74,90.66 90.69,90.66z"/>
   </g>
   <g>
    <path class="fil0 str0" d="M14019.44 787.03c11.5,-192.68 101.71,-455.71 137.2,-596.37 35.51,140.58 125.66,403.4 137.21,596.09 19.33,322.24 -293.63,322.31 -274.42,0.28z"/>
    <path class="fil0 str0" d="M7722.69 231.11c-542.55,136.82 -1039.09,636.43 -1362.88,704.76 -323.79,68.36 -284,-317.79 -10.91,-273.41"/>
    <path class="fil0 str0" d="M20571.52 231.11c542.53,136.82 1039.09,636.43 1362.88,704.76 323.79,68.36 284,-317.79 10.92,-273.41"/>
    <path class="fil0 str0" d="M14152.57 194.79c-309.9,992.05 -1354.52,1496.92 -2016.28,1306.62"/>
    <path class="fil0 str0" d="M14152.6 194.79c309.88,992.05 1354.48,1496.92 2016.26,1306.62"/>
    <path class="fil0 str0" d="M14151.97 190.66c187.05,230.19 560.73,426.07 747.88,282.83 185.97,-142.35 -124.34,-272.74 -108.92,-1.91 8.59,150.9 157.89,250.47 336.25,256.12"/>
    <path class="fil0 str0" d="M14151.97 190.66c-187.05,230.19 -560.77,426.07 -747.9,282.83 -185.97,-142.35 124.32,-272.74 108.92,-1.91 -8.59,150.9 -157.89,250.47 -336.27,256.12"/>
    <path class="fil0 str0" d="M16433.68 1187.26c119.02,482.11 935.85,540.63 1089.08,229.03"/>
    <path class="fil0 str0" d="M11871.84 1187.26c-119.02,482.11 -935.85,540.63 -1089.09,229.03"/>
    <path class="fil0 str0" d="M9855.29 859.18c-518.64,-494.38 -1451.81,-5.1 -1509.82,337.25"/>
    <path class="fil0 str0" d="M18451.07 860.32c518.63,-494.4 1451.82,-5.12 1509.84,337.23"/>
    <path class="fil0 str0" d="M21432.93 1366.9c277.82,411.6 1064.84,185.13 1101.31,-160.18"/>
    <path class="fil0 str0" d="M6873.43 1365.78c-277.83,411.6 -1064.83,185.13 -1101.32,-160.18"/>
    <path class="fil0 str1" d="M14152.77 190.66c-342.33,1069.17 -2148.05,1259.34 -2629.44,833.72 -617.48,-545.96 225.89,-1146.17 354.62,-257.97 61.95,427.47 -80.41,800.5 -346.84,989.4 -278.62,197.51 -740.87,221.95 -1151.38,-159.66"/>
    <path class="fil2" d="M10408.6 1629.56c49.95,0 90.69,-40.71 90.69,-90.66 0,-49.95 -40.74,-90.69 -90.69,-90.69 -49.95,0 -90.68,40.74 -90.68,90.69 0,49.95 40.73,90.66 90.68,90.66z"/>
    <path class="fil0 str1" d="M14152.77 190.66c342.32,1069.17 2148.03,1259.34 2629.41,833.72 617.48,-545.96 -225.89,-1146.17 -354.62,-257.97 -74.56,514.47 146.83,950.08 524.27,1080.75 264.15,91.4 710.63,96.18 981.14,-255.81"/>
    <path class="fil2" d="M17889.46 1637.06c49.95,0 90.69,-40.72 90.69,-90.67 0,-49.95 -40.74,-90.69 -90.69,-90.69 -49.95,0 -90.66,40.74 -90.66,90.69 0,49.95 40.71,90.67 90.66,90.67z"/>
    <path class="fil2" d="M14152.79 281.32c49.95,0 90.69,-40.71 90.69,-90.66 0,-49.96 -40.74,-90.69 -90.69,-90.69 -49.95,0 -90.69,40.73 -90.69,90.69 0,49.95 40.74,90.66 90.69,90.66z"/>
    <path class="fil0 str1" d="M14152.77 190.66c-242.49,610.46 -1354.44,958.69 -1609.64,520.16 -223.62,-384.34 288.4,-642.63 453.12,-341.77 128.92,235.47 -171.57,380.99 -268.07,165.95"/>
    <path class="fil2" d="M12827.16 424.06c43.16,25.43 57.53,81 32.08,124.17 -25.43,43.14 -81,57.5 -124.17,32.08 -43.15,-25.45 -57.51,-81.02 -32.06,-124.17 25.43,-43.15 81,-57.51 124.15,-32.08z"/>
    <path class="fil0 str1" d="M14152.77 190.66c242.49,610.46 1354.42,958.69 1609.61,520.16 223.63,-384.34 -288.39,-642.63 -453.11,-341.77 -128.93,235.47 171.56,380.99 268.06,165.95"/>
    <path class="fil2" d="M15478.36 424.06c-43.17,25.43 -57.53,81 -32.08,124.17 25.43,43.14 81,57.5 124.17,32.08 43.14,-25.45 57.5,-81.02 32.05,-124.17 -25.42,-43.15 -80.99,-57.51 -124.14,-32.08z"/>
    <path class="fil1" d="M12237.71 1412.89c16.08,47.43 -9.32,98.91 -56.78,114.99 -47.43,16.07 -98.89,-9.34 -114.97,-56.77 -16.08,-47.44 9.32,-98.91 56.76,-115 47.45,-16.08 98.91,9.32 114.99,56.78z"/>
    <path class="fil1" d="M16067.42 1412.89c-16.09,47.43 9.34,98.91 56.77,114.99 47.43,16.07 98.91,-9.34 115,-56.77 16.08,-47.44 -9.32,-98.91 -56.78,-115 -47.43,-16.08 -98.91,9.32 -114.99,56.78z"/>
    <path class="fil1" d="M17500.8 1295.78c47.41,16.17 72.73,67.7 56.56,115.11 -16.17,47.41 -67.67,72.73 -115.1,56.56 -47.41,-16.17 -72.73,-67.67 -56.56,-115.11 16.17,-47.41 67.67,-72.73 115.1,-56.56z"/>
    <path class="fil1" d="M10804.71 1295.78c-47.41,16.17 -72.73,67.7 -56.56,115.11 16.17,47.41 67.67,72.73 115.11,56.56 47.41,-16.17 72.73,-67.67 56.56,-115.11 -16.17,-47.41 -67.67,-72.73 -115.11,-56.56z"/>
    <path class="fil0 str1" d="M14152.77 190.66c596.76,-222.84 3358.99,-486.19 4255.09,912.91 333.86,521.21 -363.28,609.55 -141.69,17.78 297.44,-794.34 2065.53,-1304.68 2656.22,-680.53 304.39,321.57 -89.46,646.82 -317.61,401.76 -172.9,-185.69 115.04,-405.51 265.34,-179.19"/>
    <path class="fil2" d="M20815.26 780.7c49.95,0 90.68,-40.71 90.68,-90.66 0,-49.95 -40.73,-90.69 -90.68,-90.69 -49.95,0 -90.67,40.74 -90.67,90.69 0,49.95 40.72,90.66 90.67,90.66z"/>
    <path class="fil0 str1" d="M14152.77 190.66c-596.79,-222.84 -3359.02,-486.19 -4255.11,912.91 -333.87,521.21 361.94,610.05 141.68,17.78 -309.51,-832.26 -2065.52,-1304.68 -2656.22,-680.53 -304.39,321.57 89.46,646.82 317.61,401.76 172.9,-185.69 -115.04,-405.51 -265.33,-179.19"/>
    <path class="fil2" d="M7490.28 780.7c49.95,0 90.67,-40.71 90.67,-90.66 0,-49.95 -40.72,-90.69 -90.67,-90.69 -49.95,0 -90.69,40.74 -90.69,90.69 0,49.95 40.74,90.66 90.69,90.66z"/>
    <path class="fil0 str1" d="M14155.42 191.78c570.86,-187.53 1848.09,-146.68 2073.79,321.52"/>
    <path class="fil2" d="M16089.29 502.07c18.52,-46.55 71.23,-69.27 117.77,-50.75 46.55,18.51 69.25,71.22 50.75,117.77 -18.51,46.55 -71.24,69.26 -117.77,50.75 -46.55,-18.52 -69.26,-71.23 -50.75,-117.77z"/>
    <path class="fil0 str1" d="M14155.39 191.78c-570.88,-187.53 -1848.14,-146.68 -2073.81,321.52"/>
    <path class="fil2" d="M12221.5 502.07c-18.52,-46.55 -71.23,-69.27 -117.77,-50.75 -46.55,18.51 -69.27,71.22 -50.75,117.77 18.51,46.55 71.22,69.26 117.77,50.75 46.55,-18.52 69.26,-71.23 50.75,-117.77z"/>
    <path class="fil1" d="M15074.96 589.82c-43.17,25.43 -57.53,81 -32.08,124.17 25.43,43.15 81,57.51 124.17,32.06 43.14,-25.43 57.5,-81 32.05,-124.15 -25.42,-43.16 -80.99,-57.53 -124.14,-32.08z"/>
    <path class="fil1" d="M13228.96 589.82c43.15,25.43 57.51,81 32.08,124.17 -25.43,43.15 -81.02,57.51 -124.16,32.06 -43.15,-25.43 -57.51,-81 -32.09,-124.15 25.45,-43.16 81.02,-57.53 124.17,-32.08z"/>
    <path class="fil1" d="M21948.27 814.18c49.95,0 90.68,-40.71 90.68,-90.66 0,-49.95 -40.73,-90.69 -90.68,-90.69 -49.96,0 -90.67,40.74 -90.67,90.69 0,49.95 40.71,90.66 90.67,90.66z"/>
    <path class="fil1" d="M6345.97 814.18c49.95,0 90.68,-40.71 90.68,-90.66 0,-49.95 -40.73,-90.69 -90.68,-90.69 -49.95,0 -90.69,40.74 -90.69,90.69 0,49.95 40.74,90.66 90.69,90.66z"/>
    <path class="fil0 str1" d="M9977.13 990.06c-1172.39,-1387.92 -2248.04,1111.48 -3197.07,307.25 -279.78,-237.11 205.24,-487.32 130.45,-31.28 -74.8,456.06 -1407.32,757.26 -1396.86,-242.04"/>
    <path class="fil2" d="M5574.99 1114.63c49.95,0 90.66,-40.71 90.66,-90.66 0,-49.95 -40.71,-90.69 -90.66,-90.69 -49.96,0 -90.69,40.74 -90.69,90.69 0,49.95 40.73,90.66 90.69,90.66z"/>
    <path class="fil0 str1" d="M9977.13 990.06c-380.31,-540.72 -1314.1,-206.54 -1300.08,224.38 11.35,348.76 445.88,326.78 441.66,57.59 -3.27,-210.66 -264.75,-193.48 -247.25,-9.34"/>
    <path class="fil2" d="M9010.95 1298.43c24.95,-43.43 9.99,-98.82 -33.44,-123.8 -43.42,-24.95 -98.84,-9.99 -123.8,33.44 -24.97,43.42 -10.01,98.82 33.42,123.8 43.42,24.95 98.84,9.99 123.82,-33.44z"/>
    <path class="fil1" d="M8408.1 1289.24c-50.04,-1.96 -89.01,-44.12 -87.03,-94.18 1.98,-50.06 44.14,-89 94.2,-87.02 50.04,1.96 89.01,44.11 87.03,94.17 -1.98,50.06 -44.14,89.01 -94.2,87.03z"/>
    <path class="fil1" d="M5834.25 1100.04c-50.08,-1.17 -91.59,38.47 -92.76,88.55 -1.16,50.08 38.48,91.59 88.56,92.76 50.08,1.16 91.59,-38.48 92.75,-88.56 1.17,-50.08 -38.47,-91.59 -88.55,-92.75z"/>
    <path class="fil0 str1" d="M18329.23 991.18c1172.39,-1387.9 2248.04,1111.48 3197.07,307.25 279.8,-237.11 -205.22,-487.32 -130.44,-31.26 74.8,456.06 1407.3,757.27 1396.84,-242.06"/>
    <path class="fil2" d="M22731.39 1115.78c49.95,0 90.69,-40.72 90.69,-90.67 0,-49.95 -40.74,-90.69 -90.69,-90.69 -49.95,0 -90.69,40.74 -90.69,90.69 0,49.95 40.74,90.67 90.69,90.67z"/>
    <path class="fil0 str1" d="M18329.23 991.18c380.3,-540.7 1314.11,-206.51 1300.09,224.4 -11.34,348.77 -445.9,326.78 -441.68,57.6 3.28,-210.67 264.76,-193.51 247.25,-9.35"/>
    <path class="fil2" d="M19295.43 1299.57c-24.98,-43.42 -10.02,-98.84 33.41,-123.8 43.43,-24.97 98.85,-10.01 123.82,33.42 24.96,43.42 9.99,98.84 -33.43,123.8 -43.43,24.97 -98.85,10.01 -123.8,-33.42z"/>
    <path class="fil1" d="M19898.25 1290.38c50.06,-1.98 89.01,-44.14 87.03,-94.2 -1.98,-50.03 -44.14,-89.01 -94.17,-87.02 -50.06,1.98 -89.01,44.13 -87.05,94.19 1.98,50.04 44.14,89.01 94.19,87.03z"/>
    <path class="fil1" d="M22472.11 1101.18c50.08,-1.16 91.59,38.47 92.75,88.55 1.16,50.06 -38.47,91.59 -88.55,92.74 -50.08,1.16 -91.6,-38.48 -92.76,-88.56 -1.16,-50.06 38.48,-91.59 88.56,-92.73z"/>
    <path class="fil0 str1" d="M13874.88 1261.83c23.62,-346.12 208.86,-818.57 281.76,-1071.17 72.91,252.5 258.02,724.56 281.76,1070.67 39.69,578.79 -602.94,578.88 -563.52,0.5z"/>
   </g>
   <g>
    <path class="fil0 str0" d="M14040.29 18551.98c12.66,184.51 111.98,400.8 113.92,940.96 -2.97,-549.53 105.89,-756.15 118.79,-940.7 16.38,-234.46 -248.93,-236.93 -232.7,-0.26z"/>
    <path class="fil0 str0" d="M14152.77 19492.94c83.69,-553.6 632.16,-855.62 946.92,-650.66 404.82,263.66 -73.42,786.49 -355.61,338.63 -124.6,-197.78 233.72,-295.03 128.06,27.53 -44.59,136.07 -259.52,284.5 -400.16,84.08"/>
    <path class="fil0 str0" d="M14152.77 19492.94c-83.69,-553.6 -632.19,-855.62 -946.94,-650.66 -404.82,263.66 73.42,786.49 355.61,338.63 124.6,-197.78 -233.73,-295.03 -128.07,27.53 44.59,136.07 259.52,284.5 400.18,84.08"/>
    <path class="fil0 str0" d="M10599.27 18364c-221.28,35.37 -413.24,118.33 -545.85,258.42 -304.34,321.57 89.48,646.83 317.63,401.79 172.91,-185.72 -115.06,-405.54 -265.35,-179.22"/>
    <path class="fil0 str0" d="M17706.25 18364c221.28,35.37 413.24,118.33 545.84,258.42 304.35,321.57 -89.48,646.83 -317.63,401.79 -172.9,-185.72 115.06,-405.54 265.36,-179.22"/>
    <path class="fil0 str0" d="M22391.56 18926.01c-138.15,-224.64 140.5,-322.92 251.73,-181.73 228.71,290.38 -193.42,714.53 -629.8,424.53 -340.02,-225.96 134.8,-433.29 161.86,-69.98 26.68,358.02 -1188.36,513.12 -1683.29,310.61"/>
    <path class="fil0 str0" d="M5913.95 18926.01c138.16,-224.64 -140.5,-322.92 -251.72,-181.73 -228.71,290.38 193.42,714.53 629.79,424.53 340.02,-225.96 -134.79,-433.29 -161.86,-69.98 -26.67,358.02 1188.37,513.12 1683.29,310.61"/>
    <path class="fil2" d="M14150.72 19583.63c49.95,0 90.67,-40.74 90.67,-90.69 0,-49.95 -40.72,-90.67 -90.67,-90.67 -49.95,0 -90.68,40.72 -90.68,90.67 0,49.95 40.73,90.69 90.68,90.69z"/>
    <path class="fil0 str1" d="M7585.06 19047.9c246.47,-294.77 -109.94,-671.38 -429.17,-334.36 -164.38,173.55 -157.25,483.9 54.68,648.76 584.52,454.62 2097.18,-900.57 3338.46,-994.82 976.65,-74.16 1833.17,228.92 2153.71,632.09 467.95,588.63 -537.88,761.49 -228.95,47.48 398.59,-921.22 1678.99,-550.09 1678.99,445.9"/>
    <path class="fil1" d="M10160.58 18962.34c49.95,0 90.67,-40.74 90.67,-90.69 0,-49.95 -40.72,-90.69 -90.67,-90.69 -49.95,0 -90.69,40.74 -90.69,90.69 0,49.95 40.74,90.69 90.69,90.69z"/>
    <path class="fil2" d="M7536.72 19099.84c49.95,0 90.67,-40.73 90.67,-90.68 0,-49.96 -40.72,-90.67 -90.67,-90.67 -49.95,0 -90.69,40.71 -90.69,90.67 0,49.95 40.74,90.68 90.69,90.68z"/>
    <path class="fil0 str1" d="M12573.64 18866.68c-699.99,-523.52 -1521.03,-357.38 -1928.94,197.38"/>
    <path class="fil2" d="M10722.19 19186.68c-47.37,16.27 -98.96,-8.92 -115.21,-56.31 -16.28,-47.36 8.91,-98.93 56.3,-115.21 47.37,-16.27 98.93,8.94 115.21,56.31 16.28,47.36 -8.94,98.95 -56.3,115.21z"/>
    <path class="fil0 str1" d="M9930.38 18499.21c-636.7,196.57 -1508.89,485.41 -1774.07,250.78 -271.19,-239.93 87.5,-656.04 342.82,-366.68 239.67,271.62 -184.38,383.84 -157.61,71.35 26.78,-312.46 336.57,-334.53 502.41,-103.69"/>
    <path class="fil2" d="M8788.74 18470.7c49.95,0 90.67,-40.73 90.67,-90.68 0,-49.95 -40.72,-90.69 -90.67,-90.69 -49.95,0 -90.69,40.74 -90.69,90.69 0,49.95 40.74,90.68 90.69,90.68z"/>
    <path class="fil1" d="M5856.42 18992.09c49.95,0 90.67,-40.73 90.67,-90.69 0,-49.95 -40.72,-90.66 -90.67,-90.66 -49.95,0 -90.68,40.71 -90.68,90.66 0,49.96 40.73,90.69 90.68,90.69z"/>
    <path class="fil0 str1" d="M20720.46 19047.9c-246.48,-294.77 109.93,-671.38 429.17,-334.36 164.37,173.55 157.25,483.9 -54.69,648.76 -584.51,454.62 -2097.17,-900.57 -3338.45,-994.82 -976.66,-74.16 -1833.18,228.92 -2153.72,632.09 -467.94,588.63 537.88,761.49 228.95,47.48 -398.59,-921.22 -1678.96,-550.09 -1678.96,445.9"/>
    <path class="fil1" d="M18144.96 18962.34c49.95,0 90.68,-40.74 90.68,-90.69 0,-49.95 -40.73,-90.69 -90.68,-90.69 -49.96,0 -90.67,40.74 -90.67,90.69 0,49.95 40.71,90.69 90.67,90.69z"/>
    <path class="fil2" d="M20768.81 19099.84c49.96,0 90.69,-40.73 90.69,-90.68 0,-49.96 -40.73,-90.67 -90.69,-90.67 -49.95,0 -90.66,40.71 -90.66,90.67 0,49.95 40.71,90.68 90.66,90.68z"/>
    <path class="fil0 str1" d="M15731.87 18866.68c700,-523.52 1521.04,-357.38 1928.95,197.38"/>
    <path class="fil2" d="M17583.33 19186.68c47.37,16.27 98.95,-8.92 115.21,-56.31 16.28,-47.36 -8.92,-98.93 -56.3,-115.21 -47.37,-16.27 -98.94,8.94 -115.21,56.31 -16.28,47.36 8.93,98.95 56.3,115.21z"/>
    <path class="fil0 str1" d="M18375.13 18499.21c636.7,196.57 1508.89,485.41 1774.07,250.78 271.19,-239.93 -87.5,-656.04 -342.82,-366.68 -239.67,271.62 184.38,383.84 157.62,71.35 -26.79,-312.46 -336.58,-334.53 -502.42,-103.69"/>
    <path class="fil2" d="M19516.79 18470.7c49.96,0 90.69,-40.73 90.69,-90.68 0,-49.95 -40.73,-90.69 -90.69,-90.69 -49.95,0 -90.66,40.74 -90.66,90.69 0,49.95 40.71,90.68 90.66,90.68z"/>
    <path class="fil1" d="M22449.11 18992.09c49.95,0 90.69,-40.73 90.69,-90.69 0,-49.95 -40.74,-90.66 -90.69,-90.66 -49.95,0 -90.66,40.71 -90.66,90.66 0,49.96 40.71,90.69 90.66,90.69z"/>
    <path class="fil1" d="M14485.49 19335.17c47.37,16.28 98.94,-8.93 115.19,-56.3 16.28,-47.39 -8.91,-98.96 -56.28,-115.21 -47.37,-16.28 -98.93,8.91 -115.21,56.3 -16.28,47.37 8.93,98.94 56.3,115.21z"/>
    <path class="fil1" d="M13820.04 19335.17c-47.36,16.28 -98.95,-8.93 -115.21,-56.3 -16.27,-47.39 8.92,-98.96 56.31,-115.21 47.36,-16.28 98.93,8.91 115.21,56.3 16.27,47.37 -8.94,98.94 -56.31,115.21z"/>
    <path class="fil0 str0" d="M14151.89 19491.26c-21.94,-983.93 588.62,-1629.68 1277.1,-1642.86"/>
    <path class="fil1" d="M15402.12 17996.34c47.39,16.26 98.95,-8.93 115.23,-56.32 16.26,-47.37 -8.93,-98.94 -56.3,-115.21 -47.39,-16.28 -98.96,8.93 -115.23,56.3 -16.26,47.39 8.93,98.95 56.3,115.23z"/>
    <path class="fil0 str0" d="M14150.72 19491.26c21.94,-983.93 -588.62,-1629.68 -1277.1,-1642.86"/>
    <path class="fil1" d="M12900.47 17996.34c-47.37,16.26 -98.94,-8.93 -115.21,-56.32 -16.28,-47.37 8.93,-98.94 56.3,-115.21 47.37,-16.28 98.93,8.93 115.21,56.3 16.28,47.39 -8.93,98.95 -56.3,115.23z"/>
    <path class="fil0 str1" d="M13874.88 18083.25c23.56,276.7 271.15,600.45 275.82,1409.69 -7.13,-823.26 263.98,-1132.56 287.7,-1409.3 39.64,-462.83 -602.88,-462.85 -563.52,-0.39z"/>
   </g>
   <g>
    <path class="fil0 str0" d="M27584.28 9712.35c-213.94,28.98 -385.43,143.73 -662.07,128.31 339.29,18.6 442.86,110.19 661.75,128.3 356.34,29.49 352.72,-304.37 0.32,-256.6z"/>
    <path class="fil0 str0" d="M26920.57 9841.68c853.92,-122.45 1436.39,-973.99 961.67,-1328.86 -284.02,-212.33 -479.92,173.31 -279.91,315.15 200.01,141.81 318.17,-101.34 183.15,-220.27"/>
    <path class="fil0 str0" d="M26923.39 9841.49c853.92,122.44 1433.57,995.12 958.85,1350 -284.02,212.33 -479.92,-173.31 -279.91,-315.15 200.01,-141.82 318.17,101.34 183.15,220.27"/>
    <path class="fil0 str0" d="M27921.3 8068.68c233.81,-355.76 200.33,-1039.91 -137.49,-1104.87 -354.75,-68.23 -456.08,342.57 -157.07,385.28 442.65,63.26 177.68,-435.28 -3.1,-126.08 -78.44,134.15 -93.08,366.76 42.65,447.6"/>
    <path class="fil0 str0" d="M27921.3 11614.95c233.81,355.74 200.33,1039.89 -137.49,1104.84 -354.75,68.23 -456.08,-342.54 -157.07,-385.28 442.65,-63.23 177.68,435.31 -3.1,126.09 -78.44,-134.15 -93.08,-366.75 42.65,-447.61"/>
    <path class="fil0 str1" d="M27557.17 6370.43c-282.79,-53.98 -261.95,-391.33 41.9,-322.72 443.49,100.16 997.56,1483.32 283.2,2054.12 -262.1,209.37 -412.59,43.14 -376.23,-75.55 29.94,-97.62 207.45,-157.3 371,0.73 702.24,678.7 276.42,1728.55 -956.46,1814.64"/>
    <path class="fil0 str1" d="M26922.21 9841.81c411.65,-115.71 601.8,-724.18 384.48,-1137.08"/>
    <path class="fil2" d="M27560.49 6396c49.95,0 90.68,-40.71 90.68,-90.66 0,-49.95 -40.73,-90.69 -90.68,-90.69 -49.95,0 -90.69,40.74 -90.69,90.69 0,49.95 40.74,90.66 90.69,90.66z"/>
    <path class="fil1" d="M27692.52 7704.35c49.96,0 90.69,-40.72 90.69,-90.67 0,-49.95 -40.73,-90.68 -90.69,-90.68 -49.95,0 -90.66,40.73 -90.66,90.68 0,49.95 40.71,90.67 90.66,90.67z"/>
    <path class="fil2" d="M27250.18 8821.02c49.95,0 90.68,-40.72 90.68,-90.67 0,-49.95 -40.73,-90.69 -90.68,-90.69 -49.96,0 -90.69,40.74 -90.69,90.69 0,49.95 40.73,90.67 90.69,90.67z"/>
    <path class="fil2" d="M26922.21 9932.47c49.95,0 90.69,-40.71 90.69,-90.66 0,-49.95 -40.74,-90.69 -90.69,-90.69 -49.95,0 -90.67,40.74 -90.67,90.69 0,49.95 40.72,90.66 90.67,90.66z"/>
    <path class="fil0 str1" d="M27557.17 13313.17c-282.79,54 -261.95,391.33 41.9,322.71 443.49,-100.16 997.17,-1482.86 283.2,-2054.11 -223.35,-178.68 -372.25,-70.17 -368.14,35.14 4.57,116.48 183.39,233.05 362.91,39.7 787.56,-848.47 104.51,-1703.01 -952.13,-1815.55"/>
    <path class="fil0 str1" d="M26922.21 9841.81c411.65,115.7 601.8,724.17 384.48,1137.08"/>
    <path class="fil2" d="M27560.49 13468.92c49.95,0 90.68,-40.73 90.68,-90.69 0,-49.95 -40.73,-90.68 -90.68,-90.68 -49.95,0 -90.69,40.73 -90.69,90.68 0,49.96 40.74,90.69 90.69,90.69z"/>
    <path class="fil1" d="M27692.52 12160.57c49.96,0 90.69,-40.74 90.69,-90.69 0,-49.95 -40.73,-90.67 -90.69,-90.67 -49.95,0 -90.66,40.72 -90.66,90.67 0,49.95 40.71,90.69 90.66,90.69z"/>
    <path class="fil2" d="M27250.18 11043.91c49.95,0 90.68,-40.74 90.68,-90.69 0,-49.95 -40.73,-90.66 -90.68,-90.66 -49.96,0 -90.69,40.71 -90.69,90.66 0,49.95 40.73,90.69 90.69,90.69z"/>
    <path class="fil1" d="M27737.8 8738.23c49.95,0 90.69,-40.71 90.69,-90.66 0,-49.96 -40.74,-90.69 -90.69,-90.69 -49.95,0 -90.66,40.73 -90.66,90.69 0,49.95 40.71,90.66 90.66,90.66z"/>
    <path class="fil1" d="M27737.8 11147.4c49.95,0 90.69,-40.74 90.69,-90.69 0,-49.95 -40.74,-90.69 -90.69,-90.69 -49.95,0 -90.66,40.74 -90.66,90.69 0,49.95 40.71,90.69 90.66,90.69z"/>
    <path class="fil0 str1" d="M27761.62 9620.46c-271.78,49.97 -489.61,247.85 -841.05,221.22 431.01,32.08 562.6,189.98 840.66,221.22 452.66,50.85 448.05,-524.81 0.39,-442.44z"/>
   </g>
   <g>
    <path class="fil0 str0" d="M27667.46 732.37c-873.77,762.73 -1762.49,984.45 -2328.49,592.26"/>
    <path class="fil0 str0" d="M27667.46 732.35c-761.96,874.48 -982.87,1763.39 -590.2,2329.05"/>
    <path class="fil0 str1" d="M27678.64 718.83c-475.62,573.59 -850.52,1359.91 -462.78,1932.23 402.64,594.34 1261.06,66.96 864.42,-548.71 -310.46,-481.9 -990.63,-50.55 -785.99,204.3 143.08,178.22 666.59,-287.64 278.79,-827.67"/>
    <path class="fil0 str1" d="M27667.46 732.37c-577.95,466.89 -1357.32,823.64 -1923.32,431.49 -590.09,-408.82 -53.76,-1261.7 557.73,-858.63 478.63,315.48 40.2,991.1 -212.52,783.79 -176.69,-144.93 294.61,-663.53 830.53,-270.11"/>
    <path class="fil0 str0" d="M28214.86 190.66c-286.59,282.25 -886.11,539.79 -1189.74,388.01 -303.66,-151.8 -101.03,-450.68 173.11,-289.21"/>
    <path class="fil0 str0" d="M28214.86 190.66c-280.15,288.63 -533.3,890.02 -379.3,1192.54 154.02,302.54 451.39,97.72 287.94,-175.23"/>
    <path class="fil1" d="M28068.68 1327.2c49.95,0 90.68,-40.74 90.68,-90.69 0,-49.95 -40.73,-90.69 -90.68,-90.69 -49.96,0 -90.67,40.74 -90.67,90.69 0,49.95 40.71,90.69 90.67,90.69z"/>
    <path class="fil1" d="M27171.68 435.73c49.95,0 90.68,-40.72 90.68,-90.67 0,-49.95 -40.73,-90.68 -90.68,-90.68 -49.96,0 -90.67,40.73 -90.67,90.68 0,49.95 40.71,90.67 90.67,90.67z"/>
    <line class="fil0 str1" x1="28214.86" y1="190.66" x2="27678.64" y2= "718.8" />
    <path class="fil0 str1" d="M27667.46 732.37c-1709.88,1784.34 -719.31,3199.39 -202.83,3190.93 516.48,-8.48 219.37,-648.31 -150.68,-271.3 -340.33,346.68 -264.21,1406.68 643.42,1778"/>
    <path class="fil0 str1" d="M27667.46 732.37c-1778.87,1715.58 -3195.8,717.13 -3188.97,200.65 6.78,-516.52 647.6,-221.45 271.77,149.8 -335.37,331.35 -1343.79,272.68 -1745.12,-559.54"/>
    <path class="fil0 str1" d="M27200.2 3827.24c-178.76,535.02 367.54,1234.22 810.11,985.94 387.84,-217.56 53.24,-696.06 -236.83,-512.97 -223.95,141.36 -25.64,403.81 166.66,267.51"/>
    <path class="fil2" d="M27911.22 4603.24c49.95,0 90.69,-40.71 90.69,-90.66 0,-49.96 -40.74,-90.69 -90.69,-90.69 -49.95,0 -90.66,40.73 -90.66,90.69 0,49.95 40.71,90.66 90.66,90.66z"/>
    <path class="fil2" d="M27983.61 5464.46c49.95,0 90.69,-40.72 90.69,-90.67 0,-49.95 -40.74,-90.69 -90.69,-90.69 -49.95,0 -90.67,40.74 -90.67,90.69 0,49.95 40.72,90.67 90.67,90.67z"/>
    <path class="fil1" d="M27128.57 3118.26c49.95,0 90.69,-40.74 90.69,-90.69 0,-49.95 -40.74,-90.68 -90.69,-90.68 -49.95,0 -90.66,40.73 -90.66,90.68 0,49.95 40.71,90.69 90.66,90.69z"/>
    <path class="fil2" d="M27521.69 1601.81c49.95,0 90.69,-40.74 90.69,-90.69 0,-49.95 -40.74,-90.68 -90.69,-90.68 -49.95,0 -90.69,40.73 -90.69,90.68 0,49.95 40.74,90.69 90.69,90.69z"/>
    <path class="fil2" d="M26889.35 962.74c49.96,0 90.69,-40.72 90.69,-90.67 0,-49.95 -40.73,-90.69 -90.69,-90.69 -49.95,0 -90.68,40.74 -90.68,90.69 0,49.95 40.73,90.67 90.68,90.67z"/>
    <path class="fil1" d="M25375.64 1365.22c49.95,0 90.69,-40.74 90.69,-90.69 0,-49.95 -40.74,-90.68 -90.69,-90.68 -49.95,0 -90.69,40.73 -90.69,90.68 0,49.95 40.74,90.69 90.69,90.69z"/>
    <path class="fil2" d="M23061.7 587.09c49.95,0 90.69,-40.71 90.69,-90.67 0,-49.95 -40.74,-90.68 -90.69,-90.68 -49.95,0 -90.66,40.73 -90.66,90.68 0,49.96 40.71,90.67 90.66,90.67z"/>
    <path class="fil0 str1" d="M24574.9 1197.36c-532.17,187.09 -1239.79,-348.23 -998.48,-794.63 211.48,-391.18 695.15,-64.09 516.6,228.8 -137.83,226.12 -403.33,31.95 -270.07,-162.48"/>
    <path class="fil2" d="M23969.18 495.71c0.8,50.08 -39.17,91.29 -89.25,92.07 -50.08,0.8 -91.31,-39.17 -92.08,-89.25 -0.78,-50.08 39.16,-91.29 89.24,-92.08 50.1,-0.78 91.31,39.16 92.09,89.26z"/>
    <path class="fil2" d="M28214.86 281.32c49.95,0 90.69,-40.71 90.69,-90.66 0,-49.96 -40.74,-90.69 -90.69,-90.69 -49.95,0 -90.67,40.73 -90.67,90.69 0,49.95 40.72,90.66 90.67,90.66z"/>
   </g>
   <g>
    <path class="fil0 str0" d="M638.05 18951.25c873.77,-762.76 1762.49,-984.45 2328.49,-592.29"/>
    <path class="fil0 str0" d="M638.05 18951.25c761.96,-874.46 982.88,-1763.38 590.2,-2329.03"/>
    <path class="fil0 str1" d="M626.88 18964.79c475.61,-573.62 850.51,-1359.93 462.78,-1932.26 -402.65,-594.33 -1261.06,-66.94 -864.43,548.73 310.47,481.88 990.63,50.56 785.99,-204.31 -143.08,-178.2 -666.59,287.66 -278.79,827.67"/>
    <path class="fil0 str1" d="M638.05 18951.25c577.95,-466.92 1357.33,-823.67 1923.33,-431.5 590.09,408.83 53.76,1261.69 -557.73,858.63 -478.63,-315.5 -40.2,-991.12 212.52,-783.81 176.69,144.93 -294.62,663.53 -830.54,270.11"/>
    <path class="fil0 str0" d="M90.66 19492.94c286.58,-282.26 886.1,-539.8 1189.74,-388.02 303.66,151.83 101.02,450.71 -173.12,289.24"/>
    <path class="fil0 str0" d="M90.66 19492.94c280.14,-288.61 533.29,-890.03 379.29,-1192.54 -154.02,-302.54 -451.39,-97.73 -287.94,175.25"/>
    <path class="fil1" d="M236.86 18537.77c49.95,0 90.67,-40.73 90.67,-90.68 0,-49.96 -40.72,-90.67 -90.67,-90.67 -49.95,0 -90.69,40.71 -90.69,90.67 0,49.95 40.74,90.68 90.69,90.68z"/>
    <path class="fil1" d="M1133.86 19429.21c49.95,0 90.67,-40.74 90.67,-90.69 0,-49.95 -40.72,-90.66 -90.67,-90.66 -49.95,0 -90.69,40.71 -90.69,90.66 0,49.95 40.74,90.69 90.69,90.69z"/>
    <line class="fil0 str1" x1="90.66" y1="19492.94" x2="626.88" y2= "18964.79" />
    <path class="fil0 str1" d="M638.05 18951.25c1709.88,-1784.37 719.31,-3199.42 202.83,-3190.94 -516.48,8.47 -219.36,648.31 150.68,271.3 340.33,-346.7 264.22,-1406.67 -643.42,-1778.01"/>
    <path class="fil0 str1" d="M638.05 18951.25c1778.88,-1715.59 3195.8,-717.14 3188.98,-200.66 -6.79,516.5 -647.6,221.46 -271.77,-149.82 335.37,-331.35 1343.78,-272.67 1745.11,559.54"/>
    <path class="fil0 str1" d="M1105.31 15856.38c178.76,-535.01 -367.54,-1234.21 -810.1,-985.95 -387.84,217.56 -53.25,696.05 236.83,512.97 223.95,-141.34 25.64,-403.79 -166.66,-267.51"/>
    <path class="fil2" d="M394.31 15261.68c49.95,0 90.67,-40.73 90.67,-90.68 0,-49.95 -40.72,-90.67 -90.67,-90.67 -49.95,0 -90.68,40.72 -90.68,90.67 0,49.95 40.73,90.68 90.68,90.68z"/>
    <path class="fil2" d="M321.93 14400.47c49.95,0 90.66,-40.74 90.66,-90.69 0,-49.95 -40.71,-90.69 -90.66,-90.69 -49.95,0 -90.69,40.74 -90.69,90.69 0,49.95 40.74,90.69 90.69,90.69z"/>
    <path class="fil1" d="M1176.97 16746.7c49.95,0 90.66,-40.74 90.66,-90.69 0,-49.95 -40.71,-90.66 -90.66,-90.66 -49.96,0 -90.69,40.71 -90.69,90.66 0,49.95 40.73,90.69 90.69,90.69z"/>
    <path class="fil2" d="M783.85 18263.16c49.95,0 90.68,-40.74 90.68,-90.69 0,-49.95 -40.73,-90.66 -90.68,-90.66 -49.95,0 -90.69,40.71 -90.69,90.66 0,49.95 40.74,90.69 90.69,90.69z"/>
    <path class="fil2" d="M1416.18 18902.18c49.95,0 90.69,-40.74 90.69,-90.69 0,-49.95 -40.74,-90.66 -90.69,-90.66 -49.95,0 -90.68,40.71 -90.68,90.66 0,49.95 40.73,90.69 90.68,90.69z"/>
    <path class="fil1" d="M2929.9 18499.75c49.95,0 90.68,-40.74 90.68,-90.69 0,-49.95 -40.73,-90.66 -90.68,-90.66 -49.95,0 -90.69,40.71 -90.69,90.66 0,49.95 40.74,90.69 90.69,90.69z"/>
    <path class="fil2" d="M5243.83 19277.86c49.95,0 90.67,-40.74 90.67,-90.69 0,-49.95 -40.72,-90.66 -90.67,-90.66 -49.95,0 -90.68,40.71 -90.68,90.66 0,49.95 40.73,90.69 90.68,90.69z"/>
    <path class="fil0 str1" d="M3730.61 18486.27c532.18,-187.09 1239.79,348.21 998.49,794.6 -211.49,391.2 -695.15,64.12 -516.61,-228.77 137.83,-226.15 403.34,-31.95 270.07,162.46"/>
    <path class="fil2" d="M4336.34 19187.9c-0.8,-50.08 39.16,-91.31 89.24,-92.08 50.08,-0.78 91.31,39.16 92.09,89.24 0.77,50.1 -39.17,91.31 -89.25,92.09 -50.1,0.79 -91.31,-39.17 -92.08,-89.25z"/>
    <path class="fil2" d="M90.68 19583.63c49.95,0 90.66,-40.74 90.66,-90.69 0,-49.95 -40.71,-90.67 -90.66,-90.67 -49.95,0 -90.69,40.72 -90.69,90.67 0,49.95 40.74,90.69 90.69,90.69z"/>
   </g>
   <g>
    <path class="fil0 str0" d="M27667.46 18951.25c-873.77,-762.76 -1762.49,-984.45 -2328.49,-592.29"/>
    <path class="fil0 str0" d="M27667.46 18951.25c-761.96,-874.46 -982.87,-1763.38 -590.2,-2329.03"/>
    <path class="fil0 str1" d="M27678.64 18964.79c-475.62,-573.62 -850.52,-1359.93 -462.78,-1932.26 402.64,-594.33 1261.06,-66.94 864.42,548.73 -310.46,481.88 -990.63,50.56 -785.99,-204.31 143.08,-178.2 666.59,287.66 278.79,827.67"/>
    <path class="fil0 str1" d="M27667.46 18951.25c-577.95,-466.92 -1357.32,-823.67 -1923.32,-431.5 -590.09,408.83 -53.76,1261.69 557.73,858.63 478.63,-315.5 40.2,-991.12 -212.52,-783.81 -176.69,144.93 294.61,663.53 830.53,270.11"/>
    <path class="fil0 str0" d="M28214.86 19492.94c-286.59,-282.26 -886.11,-539.8 -1189.74,-388.02 -303.66,151.83 -101.03,450.71 173.11,289.24"/>
    <path class="fil0 str0" d="M28214.86 19492.94c-280.15,-288.61 -533.3,-890.03 -379.3,-1192.54 154.02,-302.54 451.39,-97.73 287.94,175.25"/>
    <path class="fil1" d="M28068.68 18537.77c49.95,0 90.68,-40.73 90.68,-90.68 0,-49.96 -40.73,-90.67 -90.68,-90.67 -49.96,0 -90.67,40.71 -90.67,90.67 0,49.95 40.71,90.68 90.67,90.68z"/>
    <path class="fil1" d="M27171.68 19429.21c49.95,0 90.68,-40.74 90.68,-90.69 0,-49.95 -40.73,-90.66 -90.68,-90.66 -49.96,0 -90.67,40.71 -90.67,90.66 0,49.95 40.71,90.69 90.67,90.69z"/>
    <line class="fil0 str1" x1="28214.86" y1="19492.94" x2="27678.64" y2= "18964.79" />
    <path class="fil0 str1" d="M27667.46 18951.25c-1709.88,-1784.37 -719.31,-3199.42 -202.83,-3190.94 516.48,8.47 219.37,648.31 -150.68,271.3 -340.33,-346.7 -264.21,-1406.67 643.42,-1778.01"/>
    <path class="fil0 str1" d="M27667.46 18951.25c-1778.87,-1715.59 -3195.8,-717.14 -3188.97,-200.66 6.78,516.5 647.6,221.46 271.77,-149.82 -335.37,-331.35 -1343.79,-272.67 -1745.12,559.54"/>
    <path class="fil0 str1" d="M27200.2 15856.38c-178.76,-535.01 367.54,-1234.21 810.11,-985.95 387.84,217.56 53.24,696.05 -236.83,512.97 -223.95,-141.34 -25.64,-403.79 166.66,-267.51"/>
    <path class="fil2" d="M27911.22 15261.68c49.95,0 90.69,-40.73 90.69,-90.68 0,-49.95 -40.74,-90.67 -90.69,-90.67 -49.95,0 -90.66,40.72 -90.66,90.67 0,49.95 40.71,90.68 90.66,90.68z"/>
    <path class="fil2" d="M27983.61 14400.47c49.95,0 90.69,-40.74 90.69,-90.69 0,-49.95 -40.74,-90.69 -90.69,-90.69 -49.95,0 -90.67,40.74 -90.67,90.69 0,49.95 40.72,90.69 90.67,90.69z"/>
    <path class="fil1" d="M27128.57 16746.7c49.95,0 90.69,-40.74 90.69,-90.69 0,-49.95 -40.74,-90.66 -90.69,-90.66 -49.95,0 -90.66,40.71 -90.66,90.66 0,49.95 40.71,90.69 90.66,90.69z"/>
    <path class="fil2" d="M27521.69 18263.16c49.95,0 90.69,-40.74 90.69,-90.69 0,-49.95 -40.74,-90.66 -90.69,-90.66 -49.95,0 -90.69,40.71 -90.69,90.66 0,49.95 40.74,90.69 90.69,90.69z"/>
    <path class="fil2" d="M26889.35 18902.18c49.96,0 90.69,-40.74 90.69,-90.69 0,-49.95 -40.73,-90.66 -90.69,-90.66 -49.95,0 -90.68,40.71 -90.68,90.66 0,49.95 40.73,90.69 90.68,90.69z"/>
    <path class="fil1" d="M25375.64 18499.75c49.95,0 90.69,-40.74 90.69,-90.69 0,-49.95 -40.74,-90.66 -90.69,-90.66 -49.95,0 -90.69,40.71 -90.69,90.66 0,49.95 40.74,90.69 90.69,90.69z"/>
    <path class="fil2" d="M23061.7 19277.86c49.95,0 90.69,-40.74 90.69,-90.69 0,-49.95 -40.74,-90.66 -90.69,-90.66 -49.95,0 -90.66,40.71 -90.66,90.66 0,49.95 40.71,90.69 90.66,90.69z"/>
    <path class="fil0 str1" d="M24574.9 18486.27c-532.17,-187.09 -1239.79,348.21 -998.48,794.6 211.48,391.2 695.15,64.12 516.6,-228.77 -137.83,-226.15 -403.33,-31.95 -270.07,162.46"/>
    <path class="fil2" d="M23969.18 19187.9c0.8,-50.08 -39.17,-91.31 -89.25,-92.08 -50.08,-0.78 -91.31,39.16 -92.08,89.24 -0.78,50.1 39.16,91.31 89.24,92.09 50.1,0.79 91.31,-39.17 92.09,-89.25z"/>
    <path class="fil2" d="M28214.86 19583.63c49.95,0 90.69,-40.74 90.69,-90.69 0,-49.95 -40.74,-90.67 -90.69,-90.67 -49.95,0 -90.67,40.72 -90.67,90.67 0,49.95 40.72,90.69 90.67,90.69z"/>
   </g>
   <g>
    <path class="fil0 str0" d="M726.68 9712.35c213.92,28.98 385.41,143.73 662.07,128.31 -339.29,18.6 -442.86,110.19 -661.76,128.3 -356.33,29.49 -352.71,-304.37 -0.31,-256.6z"/>
    <path class="fil0 str0" d="M1393.04 9841.68c-853.92,-122.45 -1436.39,-973.99 -961.67,-1328.86 284.02,-212.33 479.92,173.31 279.91,315.15 -200.01,141.81 -318.17,-101.34 -183.17,-220.27"/>
    <path class="fil0 str0" d="M1390.22 9841.49c-853.92,122.44 -1433.57,995.12 -958.85,1350 284.02,212.33 479.92,-173.31 279.91,-315.15 -200.01,-141.82 -318.17,101.34 -183.17,220.27"/>
    <path class="fil0 str0" d="M392.31 8068.68c-233.81,-355.76 -200.33,-1039.91 137.49,-1104.87 354.75,-68.23 456.08,342.57 157.07,385.28 -442.65,63.26 -177.68,-435.28 3.1,-126.08 78.44,134.15 93.08,366.76 -42.65,447.6"/>
    <path class="fil0 str0" d="M392.31 11614.95c-233.81,355.74 -200.33,1039.89 137.49,1104.84 354.75,68.23 456.08,-342.54 157.07,-385.28 -442.65,-63.23 -177.68,435.31 3.1,126.09 78.44,-134.15 93.08,-366.75 -42.65,-447.61"/>
    <path class="fil0 str1" d="M756.44 6370.43c282.77,-53.98 261.95,-391.33 -41.9,-322.72 -443.49,100.16 -997.56,1483.32 -283.22,2054.12 262.12,209.37 412.61,43.14 376.23,-75.55 -29.92,-97.62 -207.43,-157.3 -370.98,0.73 -702.24,678.7 -276.42,1728.55 956.46,1814.64"/>
    <path class="fil0 str1" d="M1391.4 9841.81c-411.65,-115.71 -601.8,-724.18 -384.48,-1137.08"/>
    <path class="fil2" d="M753.14 6396c49.96,0 90.69,-40.71 90.69,-90.66 0,-49.95 -40.73,-90.69 -90.69,-90.69 -49.95,0 -90.68,40.74 -90.68,90.69 0,49.95 40.73,90.66 90.68,90.66z"/>
    <path class="fil1" d="M621.11 7704.35c49.95,0 90.66,-40.72 90.66,-90.67 0,-49.95 -40.71,-90.68 -90.66,-90.68 -49.95,0 -90.69,40.73 -90.69,90.68 0,49.95 40.74,90.67 90.69,90.67z"/>
    <path class="fil2" d="M1063.43 8821.02c49.96,0 90.67,-40.72 90.67,-90.67 0,-49.95 -40.71,-90.69 -90.67,-90.69 -49.95,0 -90.68,40.74 -90.68,90.69 0,49.95 40.73,90.67 90.68,90.67z"/>
    <path class="fil2" d="M1391.42 9932.47c49.95,0 90.67,-40.71 90.67,-90.66 0,-49.95 -40.72,-90.69 -90.67,-90.69 -49.95,0 -90.69,40.74 -90.69,90.69 0,49.95 40.74,90.66 90.69,90.66z"/>
    <path class="fil0 str1" d="M756.44 13313.17c282.77,54 261.95,391.33 -41.9,322.71 -443.49,-100.16 -997.19,-1482.86 -283.22,-2054.11 223.37,-178.68 372.27,-70.17 368.16,35.14 -4.57,116.48 -183.39,233.05 -362.91,39.7 -787.56,-848.47 -104.51,-1703.01 952.13,-1815.55"/>
    <path class="fil0 str1" d="M1391.4 9841.81c-411.65,115.7 -601.8,724.17 -384.48,1137.08"/>
    <path class="fil2" d="M753.14 13468.92c49.96,0 90.69,-40.73 90.69,-90.69 0,-49.95 -40.73,-90.68 -90.69,-90.68 -49.95,0 -90.68,40.73 -90.68,90.68 0,49.96 40.73,90.69 90.68,90.69z"/>
    <path class="fil1" d="M621.11 12160.57c49.95,0 90.66,-40.74 90.66,-90.69 0,-49.95 -40.71,-90.67 -90.66,-90.67 -49.95,0 -90.69,40.72 -90.69,90.67 0,49.95 40.74,90.69 90.69,90.69z"/>
    <path class="fil2" d="M1063.43 11043.91c49.96,0 90.67,-40.74 90.67,-90.69 0,-49.95 -40.71,-90.66 -90.67,-90.66 -49.95,0 -90.68,40.71 -90.68,90.66 0,49.95 40.73,90.69 90.68,90.69z"/>
    <path class="fil1" d="M575.83 8738.23c49.95,0 90.66,-40.71 90.66,-90.66 0,-49.96 -40.71,-90.69 -90.66,-90.69 -49.95,0 -90.69,40.73 -90.69,90.69 0,49.95 40.74,90.66 90.69,90.66z"/>
    <path class="fil1" d="M575.83 11147.4c49.95,0 90.66,-40.74 90.66,-90.69 0,-49.95 -40.71,-90.69 -90.66,-90.69 -49.95,0 -90.69,40.74 -90.69,90.69 0,49.95 40.74,90.69 90.69,90.69z"/>
    <path class="fil0 str1" d="M551.99 9620.46c271.75,49.97 489.61,247.85 841.05,221.22 -431.01,32.08 -562.6,189.98 -840.66,221.22 -452.66,50.85 -448.05,-524.81 -0.39,-442.44z"/>
   </g>
  </g>
 </g>
</svg>
